<svg width="64" height="64" viewBox="0 0 64 64" fill="none" xmlns="http://www.w3.org/2000/svg">
<path d="M50.9091 26.1818C58.139 26.1818 64 20.3208 64 13.0909C64 5.861 58.139 0 50.9091 0C43.6792 0 37.8182 5.861 37.8182 13.0909C37.8182 20.3208 43.6792 26.1818 50.9091 26.1818Z" fill="#989ae9" fill-opacity="0.8"/>
<path d="M13.0909 26.1818C20.3208 26.1818 26.1818 20.3208 26.1818 13.0909C26.1818 5.861 20.3208 0 13.0909 0C5.861 0 0 5.861 0 13.0909C0 20.3208 5.861 26.1818 13.0909 26.1818Z" fill="#4A61DD"/>
<path d="M50.9091 64C58.139 64 64 58.139 64 50.9091C64 43.6792 58.139 37.8182 50.9091 37.8182C43.6792 37.8182 37.8182 43.6792 37.8182 50.9091C37.8182 58.139 43.6792 64 50.9091 64Z" fill="#4A61DD"/>
<path d="M13.0909 64C20.3208 64 26.1818 58.139 26.1818 50.9091C26.1818 43.6792 20.3208 37.8182 13.0909 37.8182C5.861 37.8182 0 43.6792 0 50.9091C0 58.139 5.861 64 13.0909 64Z" fill="#989ae9" fill-opacity="0.8"/>
</svg>
