<svg width="64" height="64" viewBox="0 0 64 64" fill="none" xmlns="http://www.w3.org/2000/svg">
    <path d="M35.2578 0H2.71214C1.21427 0 0 1.21345 0 2.71031V43.365C0 44.8618 1.21427 46.0753 2.71214 46.0753H35.2578C36.7557 46.0753 37.97 44.8618 37.97 43.365V2.71031C37.97 1.21345 36.7557 0 35.2578 0Z" fill="#4A61DD"/>
    <path d="M61.9968 19.4275L44.2079 14.6167L42.7921 19.8503L57.9801 23.9537L48.7616 57.9627L17.3441 49.4767L15.9311 54.7103L49.9685 63.9064C50.3123 63.9991 50.6711 64.0233 51.0243 63.9774C51.3775 63.9316 51.7183 63.8167 52.027 63.6392C52.3358 63.4618 52.6066 63.2253 52.8239 62.9433C53.0412 62.6613 53.2008 62.3393 53.2936 61.9956L63.9062 22.7503C64.0936 22.0567 63.9978 21.317 63.6398 20.6939C63.2818 20.0708 62.6908 19.6153 61.9968 19.4275V19.4275Z" fill="#989ae9" fill-opacity="1"/>
</svg>
