<svg width="64" height="64" viewBox="0 0 64 64" fill="none" xmlns="http://www.w3.org/2000/svg">
<path d="M22.8429 0H2.85536C2.09807 0 1.3718 0.30649 0.836313 0.852051C0.300829 1.39761 0 2.13755 0 2.90909V23.2727C0 24.0443 0.300829 24.7842 0.836313 25.3298C1.3718 25.8753 2.09807 26.1818 2.85536 26.1818H22.8429C23.6002 26.1818 24.3264 25.8753 24.8619 25.3298C25.3974 24.7842 25.6982 24.0443 25.6982 23.2727V2.90909C25.6982 2.13755 25.3974 1.39761 24.8619 0.852051C24.3264 0.30649 23.6002 0 22.8429 0ZM59.9625 37.8182H39.975C39.2177 37.8182 38.4914 38.1247 37.956 38.6702C37.4205 39.2158 37.1197 39.9557 37.1197 40.7273V61.0909C37.1197 61.8624 37.4205 62.6024 37.956 63.148C38.4914 63.6935 39.2177 64 39.975 64H59.9625C60.7198 64 61.4461 63.6935 61.9816 63.148C62.517 62.6024 62.8179 61.8624 62.8179 61.0909V40.7273C62.8179 39.9557 62.517 39.2158 61.9816 38.6702C61.4461 38.1247 60.7198 37.8182 59.9625 37.8182ZM22.8429 37.8182H2.85536C2.09807 37.8182 1.3718 38.1247 0.836313 38.6702C0.300829 39.2158 0 39.9557 0 40.7273V61.0909C0 61.8624 0.300829 62.6024 0.836313 63.148C1.3718 63.6935 2.09807 64 2.85536 64H22.8429C23.6002 64 24.3264 63.6935 24.8619 63.148C25.3974 62.6024 25.6982 61.8624 25.6982 61.0909V40.7273C25.6982 39.9557 25.3974 39.2158 24.8619 38.6702C24.3264 38.1247 23.6002 37.8182 22.8429 37.8182Z" fill="#4A61DD"/>
<path d="M45.6857 16.2502L39.975 10.432L35.9375 14.5455L43.667 22.4204C44.2024 22.9657 44.9286 23.2721 45.6857 23.2721C46.4429 23.2721 47.169 22.9657 47.7045 22.4204L64 5.81818L59.9625 1.70473L45.6857 16.2502Z" fill="#989ae9" fill-opacity="0.8"/>
</svg>
