<svg width="64" height="64" viewBox="0 0 64 64" fill="none" xmlns="http://www.w3.org/2000/svg">
<path d="M34.6667 0H29.3333V29.3333H24V34.6667H29.3333V64H34.6667V53.3333H40V48H34.6667V16H40V10.6667H34.6667V0Z" fill="#989ae9" fill-opacity="0.8"/>
<path d="M61.3333 2.66667H45.3333C43.8606 2.66667 42.6667 3.86058 42.6667 5.33334V21.3333C42.6667 22.8061 43.8606 24 45.3333 24H61.3333C62.8061 24 64 22.8061 64 21.3333V5.33334C64 3.86058 62.8061 2.66667 61.3333 2.66667Z" fill="#4A61DD"/>
<path d="M61.3333 40H45.3333C43.8606 40 42.6667 41.1939 42.6667 42.6667V58.6667C42.6667 60.1394 43.8606 61.3333 45.3333 61.3333H61.3333C62.8061 61.3333 64 60.1394 64 58.6667V42.6667C64 41.1939 62.8061 40 61.3333 40Z" fill="#4A61DD"/>
<path d="M18.6667 21.3333H2.66667C1.19391 21.3333 0 22.5272 0 24V40C0 41.4728 1.19391 42.6667 2.66667 42.6667H18.6667C20.1394 42.6667 21.3333 41.4728 21.3333 40V24C21.3333 22.5272 20.1394 21.3333 18.6667 21.3333Z" fill="#4A61DD"/>
</svg>
