<svg id="Layer_1" data-name="Layer 1" xmlns="http://www.w3.org/2000/svg" viewBox="0 0 75.42 76.65"><title>bytepack_letter_icon_black</title><path d="M58.12,51.51a10,10,0,0,0-2.46-2.57,17.53,17.53,0,0,0-3.6-2,35.36,35.36,0,0,0-4.32-1.48,65.53,65.53,0,0,0,6.51-2c2.19-.8,4.32-1.69,6.37-2.67a50.08,50.08,0,0,0,5.79-3.22,28.28,28.28,0,0,0,4.69-3.73,18.19,18.19,0,0,0,3.15-4.11,9.11,9.11,0,0,0,1.17-4.45,14.47,14.47,0,0,0-1.58-6.75,17.6,17.6,0,0,0-4.38-5.41A30.13,30.13,0,0,0,62.85,9,48.38,48.38,0,0,0,54.59,6a6.56,6.56,0,0,1,.72-.86c.3-.29.57-.58.82-.85s.47-.53.66-.76a1.07,1.07,0,0,0,.27-.48,1.57,1.57,0,0,0-.38-.85,5.57,5.57,0,0,0-1-1A6.21,6.21,0,0,0,54.32.34,3.43,3.43,0,0,0,52.88,0a3.5,3.5,0,0,0-.79.07,1.75,1.75,0,0,0-.75.48,8.21,8.21,0,0,0-1.1,1.37c-.43.64-1.06,1.55-1.88,2.74q-3.9-.69-8-1t-8.08-.3a95.35,95.35,0,0,0-12.19.75A58.27,58.27,0,0,0,9.83,6.3,24,24,0,0,0,2.67,9.76,5.73,5.73,0,0,0,0,14.32,4,4,0,0,0,.34,16a5.34,5.34,0,0,0,.86,1.33,3.85,3.85,0,0,0,1.09.89,2.18,2.18,0,0,0,1,.31A.54.54,0,0,0,3.9,18a5.16,5.16,0,0,1,2.26-4.11,18,18,0,0,1,6.1-2.91,52.9,52.9,0,0,1,8.87-1.72,93.49,93.49,0,0,1,10.52-.58,107.71,107.71,0,0,1,13.42.82q-2.88,4.32-6.51,9.94T31.13,31.13q-3.79,6.14-7.43,12.23c-2.42,4.06-4.22,7.82-6.11,11.27s-3.79,7.71-4.95,10.24c0,0-2.86,6.5-3,8.68a2.1,2.1,0,0,0,.73,2c.71.78,2.58,1.11,3.95,1.11a39.66,39.66,0,0,0,6.65-.72,97,97,0,0,0,9.79-2.05,96.18,96.18,0,0,0,10.17-3.29A57.16,57.16,0,0,0,50,66.2a26.58,26.58,0,0,0,6.55-5.34,9.32,9.32,0,0,0,2.5-6.13A5.8,5.8,0,0,0,58.12,51.51ZM35.65,34.15q2.72-4.56,5.42-8.81t5.27-8.08q2.56-3.84,4.83-6.85a70.39,70.39,0,0,1,8.18,2A35,35,0,0,1,66,15.21a15.27,15.27,0,0,1,4.42,3.52A6.49,6.49,0,0,1,72,23a8,8,0,0,1-2,5,24.12,24.12,0,0,1-5.28,4.69,48.22,48.22,0,0,1-7.57,4.11A79.06,79.06,0,0,1,48.26,40,86.48,86.48,0,0,1,39,42.3a51.81,51.81,0,0,1-8.6.92Q32.95,38.71,35.65,34.15ZM54,57.33a25.77,25.77,0,0,1-4.52,3.12,71.81,71.81,0,0,1-6.61,3.25q-3.77,1.65-8,3.09c-2.81,1-5.67,1.82-8.6,2.6a78.52,78.52,0,0,1-8.42,1.78A61.66,61.66,0,0,1,21.47,61q2.64-6,6.34-12.94,2.75.06,5.89.24t6.27.48c2.08.2,4.06.46,6,.78a33.75,33.75,0,0,1,5,1.2,13.14,13.14,0,0,1,3.46,1.65,2.61,2.61,0,0,1,1.3,2.15A4,4,0,0,1,54,57.33Z"/></svg>