
<svg xmlns="http://www.w3.org/2000/svg" version="1.1" xmlns:xlink="http://www.w3.org/1999/xlink" preserveAspectRatio="none" viewBox="0 0 30 30">
<defs/>

<g id="main">
<g>
<g>
<g>
<path fill="#ffffff" stroke="none" d="
M 30 0
L 0 0 0 30 30 30 30 0
M 11.25 23.1
Q 11.65 22.65 11.65 21.65
L 11.65 11.75 14.6 11.75 14.6 21.65
Q 14.6 23.85 13.4 25 12.25 26.05 10.25 26.05 8.6 26.05 7.45 25.25 6.45 24.6 5.9 23.4
L 8.25 21.95
Q 8.7 22.75 9 23 9.45 23.45 10.1 23.45 10.9 23.45 11.25 23.1
M 21.25 11.55
Q 22.7 11.55 23.65 12.1 24.65 12.65 25.4 13.85
L 23.1 15.3
Q 22.75 14.65 22.3 14.35 21.85 14.05 21.25 14.05 20.6 14.05 20.2 14.4 19.85 14.8 19.85 15.3 19.85 15.95 20.25 16.3 20.65 16.65 21.6 17.1
L 22.4 17.35
Q 24.35 18.25 25.2 19.15 26.25 20.25 26.25 21.95 26.25 23.9 24.85 24.95 23.55 26 21.4 26 19.5 26 18.05 25.15 16.8 24.4 16.1 23.05
L 18.5 21.7
Q 19 22.5 19.65 22.9 20.35 23.45 21.35 23.45 22.25 23.45 22.8 23.05 23.3 22.6 23.3 22 23.3 21.3 22.75 20.9 22.4 20.6 21.2 20.1
L 20.5 19.75
Q 18.75 19.05 17.95 18.15 17 17.05 17 15.4 17 13.7 18.15 12.65 19.35 11.55 21.25 11.55 Z"/>
</g>
</g>
</g>
</g>
</svg>
